# xmcd
#
# Track frame offsets:
#	150
#	13050
#	21780
#	34250
#	46610
#	58315
#	70645
#	81130
#	93150
#	105230
#	115730
#	126900
#	138065
#	149585
#	161405
#	172780
#	183535
#	195000
#	207675
#	221355
#	231340
#	243180
#
# Disc length: 3405 seconds
#
# Revision: 1
# Processed by: cddbd v1.5.1PL0 Copyright (c) Steve Scherf et al.
# Submitted via: audiograbber 1.82.02
#
DISCID=210d4b16
DTITLE=Connie Francis - The Best Of  Vol 2
DYEAR=1900
DGENRE=Country
TTITLE0=My Special Angel
TTITLE1=Hearts Of Stone
TTITLE2=Half As Much
TTITLE3=Cold Cold Heart
TTITLE4=Let Me Go Lover
TTITLE5=Anytime
TTITLE6=Who's Sorry Now
TTITLE7=Everybody's Somebody's Fool
TTITLE8=Follow The Boys
TTITLE9=Lipstick On You Collar
TTITLE10=My Happiness
TTITLE11=Vacation
TTITLE12=Among My Souveniers
TTITLE13=Where The Boys Are
TTITLE14=Frankie
TTITLE15=I'm Gonna Be Warm This Winter
TTITLE16=My Heart Has A Mind Of Its Own
TTITLE17=Second Hand Love
TTITLE18=Don't Break The Heart That Loves You
TTITLE19=Stupid Cupid
TTITLE20=Breaking In A Brand New Broken Heart
TTITLE21=The Wedding Cake
EXTD=
EXTT0=
EXTT1=
EXTT2=
EXTT3=
EXTT4=
EXTT5=
EXTT6=
EXTT7=
EXTT8=
EXTT9=
EXTT10=
EXTT11=
EXTT12=
EXTT13=
EXTT14=
EXTT15=
EXTT16=
EXTT17=
EXTT18=
EXTT19=
EXTT20=
EXTT21=
PLAYORDER=
